<svg xmlns="http://www.w3.org/2000/svg" width="86" height="20" viewBox="0 0 86 20">
	<path fill="#63697e" d="M80.483 7.6c-.84-2.4-3.683-3.3-5.783-1.8-1.06.8-1.6 1.9-1.8 3.3-.183 2.1.6 4.8 3.4 5.2 1.503.2 2.8-.2 4-1.2.35-.3.5-.7.2-1.1-.39-.5-.7-.1-1 .1-.494.2-.9.6-1.4.7-1.95.7-3.7-.5-3.6-2.5H80c.61 0 .9-.2.8-.8-.033-.6-.1-1.3-.3-1.9h-.017zm-5.997 1.5c.146-1.9 1.014-2.7 2.614-2.6 1.272.1 2.2 1.2 2.2 2.6h-4.814zM57.344 7.7C56.8 6.3 55.8 5.3 54.2 5.1c-1.601-.2-2.8.5-3.7 1.9-.8 1.3-1 2.7-.6 4.1.354 1.3.9 2.3 2.2 2.9 1.28.5 2.6.5 3.8-.1.522-.3 1-.6 1.4-.9.256-.3.3-.7 0-1.1-.347-.3-.6 0-.9.1-.185.1-.3.3-.5.4-.976.6-2 .8-3 .4-1.09-.4-1.5-1.3-1.6-2.4.206-.1.4-.1.5-.1h5c.684 0 .9-.2.9-.9-.059-.6-.1-1.2-.4-1.7zm-5.989 1.4c-.01-1.7.845-2.6 2.445-2.6 1.419 0 2.3 1 2.3 2.6h-4.745zM25.79 1.5C25.616.6 25 .1 24.2.1c-.867 0-1.3.4-1.5 1.4-.87 4.3-1.7 8.7-2.6 13-.031.2-.1.3-.1.6-.125-.3-.2-.5-.2-.6-.822-2.9-1.6-5.7-2.4-8.6-.193-.6-.5-1.1-1.2-1.2-.99-.1-1.7.4-1.9 1.4-.405 1.8-.8 3.6-1.2 5.5-.33 1.3-.6 2.6-.9 4-.092.7.3 1.1.9 1.2.686.1 1.1-.2 1.3-.9.25-1.4.5-2.7.8-4.1.198-1.1.4-2.3.7-3.5.382 1 .7 2.1 1 3.1.645 2.5 1.3 5 2 7.6.236.7.5.9 1.2.9.6 0 .9-.3 1.1-1.1.757-3.8 1.5-7.7 2.3-11.6.2-1.1.4-2.1.6-3.2h.1c.206.9.4 1.9.5 2.9.365 2.1.7 4.3 1 6.5.136.5.5.8 1 .9.9 0 1.3-.5 1.2-1.6-.713-3.7-1.4-7.5-2.1-11.2zm9.142 4.3c-.007-.2-.231-.5-.431-.6-.235-.1-.6 0-.8.2-.149.1-.3.4-.3.6.015 2.5 0 5 0 7.5.03.5.4.9.9.8.535 0 .7-.4.7-.9-.055-1.2 0-2.4 0-3.7-.048-1.3 0-2.6-.1-3.9zm-24.735-.4C9.49 5.4 9.1 5.8 9.1 6.7c-.002 1.5 0 2.9 0 4.3.002 1.5 0 3 0 4.5.007.9.4 1.3 1.1 1.3.666 0 1.1-.4 1.1-1.2-.028-3 0-6 0-8.9-.035-.9-.4-1.3-1.1-1.3zM34.24 2.1c-.485 0-.941.4-.941.9.011.5.4.9.9.9.579 0 1-.3 1-.8-.027-.5-.5-1-1-1zM6.785 14.4c-.196.1-.385.2-.585.3-1.352.5-2.7.1-3.4-1.2-.64-1.2-.7-2.4-.4-3.7.537-2.2 2.1-3 4.2-2.1.153.1.4.2.6.2.272-.1.7-.2.8-.5.18-.2.2-.6.1-.9-.145-.3-.5-.5-.7-.7C5.233 4.7 2.3 5.5 1 7.5.327 8.6.1 9.8.1 11.1c-.004.2 0 .4 0 .7.152 3.3 2.6 5.4 5.9 5 .606-.1 1.3-.5 1.8-.9.443-.2.5-.9.2-1.3-.341-.4-.8-.4-1.2-.2zm3.413-12.2c-.71 0-1.298.6-1.298 1.3-.018.7.6 1.2 1.3 1.3.677 0 1.3-.6 1.3-1.3-.02-.7-.6-1.3-1.3-1.3zm73.996 2.9c0-.5.006-1.1.006-1.7-.015-.5-.3-.9-.8-.9-.502 0-.7.3-.7.9-.041.6 0 1.2 0 1.8-.633.1-1.3-.2-1.4.6-.025 1 .8.7 1.4.8l-.041.9c0 2 .041 4 .041 6-.034.6.4 1 .9.8.463-.1.6-.5.6-1-.028-2 0-4 0-6.1l-.038-.6c.578-.1 1.338.1 1.338-.7.069-.9-.8-.6-1.3-.8zm-14.67.2C68.191 4.9 67 5.1 66 6.1c-.108-.3-.2-.6-.4-.8-.144-.1-.6-.2-.7-.1-.281.2-.5.6-.5.9-.043 2.4 0 4.8 0 7.2-.024.7.3 1.1.8 1 .493 0 .7-.3.7-1 .006-1.5 0-3 0-4.5.014-1.2.5-2 1.4-2.2 1.51-.5 2.7.4 2.7 2 .058 1.6 0 3.2 0 4.8.049.6.3.9.8.9.403.1.8-.3.8-.8-.05-2 0-3.9-.2-5.8-.03-1.2-.8-2-1.9-2.4zm-28.84-.2c-.863.1-1.584.4-2.084 1.1-.184-.4-.2-.7-.4-.9-.213-.1-.7-.2-.8-.1-.252.2-.5.5-.5.8-.021 2.5 0 5 0 7.4 0 .6.4 1 .8.9.507 0 .7-.2.7-.9.027-1.5 0-3.1 0-4.6.035-1.2.6-2 1.5-2.2 1.48-.5 2.7.5 2.7 2.1-.002 1.6 0 3.1 0 4.7-.01.7.2.9.7.9.497 0 .8-.3.8-.9.027-1.7.1-3.4 0-5-.041-2.1-1.4-3.4-3.4-3.3zm7.317 0L48 3.4c-.012-.6-.3-.9-.8-.9-.492 0-.7.3-.7.9-.033.6 0 1.2 0 1.8-.634.1-1.4-.2-1.4.7.025.9.8.6 1.4.7l-.026 3.2c0 1.2.026 2.5.026 3.7-.028.5.2.8.7.8.43.1.7-.3.8-.8-.004-.1 0-.2 0-.3l-.023-6v-.6c.578-.1 1.323.1 1.323-.7.039-.9-.8-.6-1.3-.8zm14.812.1c-.263-.1-.613 0-.913.2-.443.3-.8.7-1.2 1.1-.074-.4 0-.8-.2-1-.112-.2-.6-.4-.8-.3-.275.1-.6.5-.6.8-.023 2.5 0 5 0 7.4.003.6.4.9.8.9.5 0 .7-.2.7-.9.029-1.3 0-2.6 0-3.9.048-1 .2-1.9 1.1-2.4.437-.2.9-.3 1.3-.5.267-.2.6-.6.5-.8-.027-.3-.4-.6-.7-.6z"/>
</svg>